# xmcd CD database file
#
# Track frame offsets:
#	150
#	14600
#	29942
#	46435
#	66832
#	80650
#	95424
#	112601
#	127905
#	142747
#	159025
#	170333
#
# Disc length: 2466 seconds
#
# Revision: 5
# Processed by: cddbd v1.5.1PL0 Copyright (c) Steve Scherf et al.
# Submitted via: CDex 1.51
#
DISCID=9209a00c
DTITLE=Estopa - Estopa
DYEAR=1999
DGENRE=Blues
TTITLE0=Tu Calorro
TTITLE1=La Raja de tu falda
TTITLE2=Me falta el aliento
TTITLE3=Tan sólo
TTITLE4=Poquito a poco
TTITLE5=Suma y sigue
TTITLE6=El del Medio de los Chicos
TTITLE7=Como Camarón
TTITLE8=Exilio en el lavabo
TTITLE9=Estopa
TTITLE10=Cacho a cacho
TTITLE11=Bossanova
EXTD=YEAR: 1999
EXTT0=
EXTT1=
EXTT2=
EXTT3=
EXTT4=
EXTT5=
EXTT6=
EXTT7=
EXTT8=
EXTT9=
EXTT10=
EXTT11=
PLAYORDER=
